<?xml version="1.0" encoding="UTF-8"?>
<svg xmlns="http://www.w3.org/2000/svg" xmlns:xlink="http://www.w3.org/1999/xlink" width="160px" height="160px" viewBox="0 0 160 160" version="1.1">
<g id="surface1">
<path style=" stroke:none;fill-rule:nonzero;fill:rgb(94.901961%,94.901961%,94.901961%);fill-opacity:1;" d="M 153.589844 36.679688 L 89.175781 75.503906 L 98.457031 111.402344 L 105.089844 137.050781 L 106.757812 143.503906 L 121.601562 151.40625 L 122.140625 151.691406 L 137.644531 159.941406 L 145.085938 155.476562 L 155.226562 149.363281 L 160 146.488281 Z M 153.589844 36.679688 "/>
<path style=" stroke:none;fill-rule:nonzero;fill:rgb(18.431373%,18.039216%,25.490198%);fill-opacity:1;" d="M 155.277344 145.667969 L 155.265625 146.597656 L 155.226562 149.363281 L 145.085938 155.476562 L 138.238281 159.601562 L 137.949219 158.25 L 137.644531 159.941406 L 122.140625 151.691406 L 121.898438 143.726562 L 121.898438 143.722656 L 121.847656 141.953125 L 152.222656 139.09375 L 152.816406 140.375 L 152.933594 140.628906 Z M 155.277344 145.667969 "/>
<path style=" stroke:none;fill-rule:nonzero;fill:rgb(100%,72.156864%,72.156864%);fill-opacity:1;" d="M 133.261719 61.046875 C 133.261719 61.046875 131.222656 71.339844 130.816406 71.339844 C 130.40625 71.339844 134.6875 79.34375 134.6875 79.34375 L 141.007812 84.203125 L 143.25 71.054688 C 143.25 71.054688 141.210938 63.90625 141.621094 60.191406 Z M 133.261719 61.046875 "/>
<path style=" stroke:none;fill-rule:nonzero;fill:rgb(100%,72.156864%,72.156864%);fill-opacity:1;" d="M 144.066406 54.472656 C 144.066406 60.3125 140.6875 65.050781 136.523438 65.050781 C 132.359375 65.050781 128.980469 60.3125 128.980469 54.472656 C 128.980469 48.628906 132.359375 43.894531 136.523438 43.894531 C 140.6875 43.894531 144.066406 48.628906 144.066406 54.472656 Z M 144.066406 54.472656 "/>
<path style=" stroke:none;fill-rule:nonzero;fill:rgb(63.529414%,83.137256%,88.627452%);fill-opacity:1;" d="M 137.542969 76.484375 L 131.515625 69.144531 L 127.960938 71.625 L 120.214844 78.488281 C 120.214844 78.488281 122.253906 140.238281 121.234375 142.523438 C 121.234375 142.523438 123.476562 149.671875 136.726562 145.382812 C 149.976562 141.09375 153.441406 140.523438 153.441406 140.523438 L 150.589844 102.785156 L 154.054688 79.058594 L 142.414062 67.644531 L 138.765625 76.484375 Z M 137.542969 76.484375 "/>
<path style=" stroke:none;fill-rule:nonzero;fill:rgb(100%,72.156864%,72.156864%);fill-opacity:1;" d="M 115.117188 100.5 C 115.117188 100.5 112.0625 113.9375 114.304688 115.367188 C 116.546875 116.796875 118.378906 116.222656 118.378906 116.222656 L 121.847656 104.503906 Z M 115.117188 100.5 "/>
<path style=" stroke:none;fill-rule:nonzero;fill:rgb(100%,72.156864%,72.156864%);fill-opacity:1;" d="M 157.519531 98.210938 L 159.355469 110.21875 L 159.355469 134.519531 C 159.355469 134.519531 156.703125 149.957031 154.667969 145.957031 C 152.628906 141.953125 152.671875 140.683594 152.671875 140.683594 L 155.277344 135.089844 L 154.054688 112.222656 L 150.804688 101.3125 Z M 157.519531 98.210938 "/>
<path style=" stroke:none;fill-rule:nonzero;fill:rgb(18.431373%,18.039216%,25.490198%);fill-opacity:1;" d="M 143.660156 43.894531 C 143.660156 43.894531 141.210938 36.460938 136.523438 38.175781 C 131.835938 39.890625 129.183594 42.464844 128.980469 45.039062 C 128.777344 47.609375 129.082031 51.46875 129.082031 51.46875 C 129.082031 51.46875 129.59375 46.183594 132.855469 47.324219 C 136.117188 48.46875 141.210938 47.609375 141.210938 47.609375 L 142.027344 57.902344 C 142.027344 57.902344 142.945312 56.042969 143.964844 57.1875 C 144.984375 58.332031 146.921875 46.183594 143.660156 43.894531 Z M 143.660156 43.894531 "/>
<path style=" stroke:none;fill-rule:nonzero;fill:rgb(24.705882%,23.921569%,33.725491%);fill-opacity:1;" d="M 150.859375 100.574219 L 151.59375 105.949219 L 158.820312 103.261719 L 157.492188 98.296875 Z M 150.859375 100.574219 "/>
<path style=" stroke:none;fill-rule:nonzero;fill:rgb(24.705882%,23.921569%,33.725491%);fill-opacity:1;" d="M 114.984375 100.40625 L 113.832031 105.636719 L 121.109375 108.027344 L 121.601562 102.773438 Z M 114.984375 100.40625 "/>
<path style=" stroke:none;fill-rule:nonzero;fill:rgb(63.529414%,83.137256%,88.627452%);fill-opacity:1;" d="M 149.367188 78.488281 L 154.054688 79.058594 C 154.054688 79.058594 159.355469 99.355469 158.742188 99.929688 C 158.132812 100.5 150.792969 103.929688 149.773438 103.074219 C 148.753906 102.214844 149.367188 78.488281 149.367188 78.488281 Z M 149.367188 78.488281 "/>
<path style=" stroke:none;fill-rule:nonzero;fill:rgb(63.529414%,83.137256%,88.627452%);fill-opacity:1;" d="M 121.847656 79.058594 L 120.214844 78.488281 C 120.214844 78.488281 117.15625 83.917969 116.136719 90.207031 C 115.117188 96.496094 113.691406 102.785156 114.507812 102.785156 C 115.324219 102.785156 122.660156 106.789062 122.660156 106.789062 Z M 121.847656 79.058594 "/>
<path style=" stroke:none;fill-rule:nonzero;fill:rgb(24.705882%,23.921569%,33.725491%);fill-opacity:1;" d="M 139.800781 78.449219 C 139.800781 79.589844 139.140625 80.515625 138.324219 80.515625 C 137.511719 80.515625 136.851562 79.589844 136.851562 78.449219 C 136.851562 77.304688 137.511719 76.378906 138.324219 76.378906 C 139.140625 76.378906 139.800781 77.304688 139.800781 78.449219 Z M 139.800781 78.449219 "/>
<path style=" stroke:none;fill-rule:nonzero;fill:rgb(90.196079%,90.196079%,90.196079%);fill-opacity:1;" d="M 149.710938 115.007812 L 133.960938 121.972656 L 127.53125 93.375 C 133.601562 92.183594 138.851562 89.859375 143.28125 86.414062 C 144.101562 96.167969 146.203125 105.707031 149.710938 115.007812 Z M 149.710938 115.007812 "/>
<path style=" stroke:none;fill-rule:nonzero;fill:rgb(100%,100%,100%);fill-opacity:1;" d="M 148.234375 118.109375 L 132.484375 125.074219 L 126.058594 96.476562 C 132.125 95.285156 137.375 92.960938 141.808594 89.515625 C 142.628906 99.269531 144.726562 108.808594 148.234375 118.109375 Z M 148.234375 118.109375 "/>
<path style=" stroke:none;fill-rule:nonzero;fill:rgb(100%,72.156864%,72.156864%);fill-opacity:1;" d="M 116.136719 107.074219 C 116.136719 107.074219 113.691406 113.363281 114.304688 115.367188 C 114.914062 117.367188 120.011719 118.511719 120.621094 118.511719 C 121.234375 118.511719 128.574219 116.222656 128.574219 116.222656 C 128.574219 116.222656 139.785156 108.789062 136.523438 105.074219 C 133.261719 101.355469 127.144531 110.21875 127.144531 110.21875 L 122.253906 110.21875 L 119.605469 107.648438 Z M 116.136719 107.074219 "/>
<path style=" stroke:none;fill-rule:nonzero;fill:rgb(94.901961%,94.901961%,94.901961%);fill-opacity:1;" d="M 0.136719 25.835938 L 26.78125 25.835938 L 26.78125 42.539062 L 0.136719 42.539062 Z M 0.136719 25.835938 "/>
<path style=" stroke:none;fill-rule:nonzero;fill:rgb(24.705882%,23.921569%,33.725491%);fill-opacity:1;" d="M 92.367188 80.097656 L 97.011719 80.097656 L 97.011719 85.84375 L 92.367188 85.84375 Z M 92.367188 80.097656 "/>
<path style=" stroke:none;fill-rule:nonzero;fill:rgb(24.705882%,23.921569%,33.725491%);fill-opacity:1;" d="M 83.074219 80.097656 L 87.71875 80.097656 L 87.71875 85.84375 L 83.074219 85.84375 Z M 83.074219 80.097656 "/>
<path style=" stroke:none;fill-rule:nonzero;fill:rgb(63.529414%,83.137256%,88.627452%);fill-opacity:1;" d="M 101.65625 67.449219 L 106.300781 67.449219 L 106.300781 73.964844 L 101.65625 73.964844 Z M 101.65625 67.449219 "/>
<path style=" stroke:none;fill-rule:nonzero;fill:rgb(24.705882%,23.921569%,33.725491%);fill-opacity:1;" d="M 97.011719 73.964844 L 101.65625 73.964844 L 101.65625 80.097656 L 97.011719 80.097656 Z M 97.011719 73.964844 "/>
<path style=" stroke:none;fill-rule:nonzero;fill:rgb(24.705882%,23.921569%,33.725491%);fill-opacity:1;" d="M 87.71875 73.964844 L 92.367188 73.964844 L 92.367188 80.097656 L 87.71875 80.097656 Z M 87.71875 73.964844 "/>
<path style=" stroke:none;fill-rule:nonzero;fill:rgb(63.529414%,83.137256%,88.627452%);fill-opacity:1;" d="M 32.65625 85.460938 L 37.300781 85.460938 L 37.300781 91.210938 L 32.65625 91.210938 Z M 32.65625 85.460938 "/>
<path style=" stroke:none;fill-rule:nonzero;fill:rgb(24.705882%,23.921569%,33.725491%);fill-opacity:1;" d="M 74.464844 79.328125 L 79.113281 79.328125 L 79.113281 85.460938 L 74.464844 85.460938 Z M 74.464844 79.328125 "/>
<path style=" stroke:none;fill-rule:nonzero;fill:rgb(24.705882%,23.921569%,33.725491%);fill-opacity:1;" d="M 46.59375 79.328125 L 51.238281 79.328125 L 51.238281 85.460938 L 46.59375 85.460938 Z M 46.59375 79.328125 "/>
<path style=" stroke:none;fill-rule:nonzero;fill:rgb(24.705882%,23.921569%,33.725491%);fill-opacity:1;" d="M 41.945312 72.8125 L 46.59375 72.8125 L 46.59375 79.328125 L 41.945312 79.328125 Z M 41.945312 72.8125 "/>
<path style=" stroke:none;fill-rule:nonzero;fill:rgb(24.705882%,23.921569%,33.725491%);fill-opacity:1;" d="M 65.175781 79.328125 L 69.820312 79.328125 L 69.820312 85.460938 L 65.175781 85.460938 Z M 65.175781 79.328125 "/>
<path style=" stroke:none;fill-rule:nonzero;fill:rgb(24.705882%,23.921569%,33.725491%);fill-opacity:1;" d="M 60.53125 72.8125 L 65.175781 72.8125 L 65.175781 79.328125 L 60.53125 79.328125 Z M 60.53125 72.8125 "/>
<path style=" stroke:none;fill-rule:nonzero;fill:rgb(24.705882%,23.921569%,33.725491%);fill-opacity:1;" d="M 55.882812 79.328125 L 60.53125 79.328125 L 60.53125 85.460938 L 55.882812 85.460938 Z M 55.882812 79.328125 "/>
<path style=" stroke:none;fill-rule:nonzero;fill:rgb(24.705882%,23.921569%,33.725491%);fill-opacity:1;" d="M 37.300781 79.328125 L 41.945312 79.328125 L 41.945312 85.460938 L 37.300781 85.460938 Z M 37.300781 79.328125 "/>
<path style=" stroke:none;fill-rule:nonzero;fill:rgb(63.529414%,83.137256%,88.627452%);fill-opacity:1;" d="M 69.820312 72.8125 L 74.464844 72.8125 L 74.464844 79.328125 L 69.820312 79.328125 Z M 69.820312 72.8125 "/>
<path style=" stroke:none;fill-rule:nonzero;fill:rgb(24.705882%,23.921569%,33.725491%);fill-opacity:1;" d="M 90.828125 62.753906 L 88.414062 59.125 L 91 55.738281 L 93.414062 59.367188 Z M 88.796875 59.144531 L 90.839844 62.214844 L 93.03125 59.351562 L 90.988281 56.28125 Z M 88.796875 59.144531 "/>
<path style=" stroke:none;fill-rule:nonzero;fill:rgb(24.705882%,23.921569%,33.725491%);fill-opacity:1;" d="M 58.160156 47.824219 L 54.621094 47.824219 L 54.621094 42.863281 L 58.160156 42.863281 Z M 54.894531 47.441406 L 57.886719 47.441406 L 57.886719 43.242188 L 54.894531 43.242188 Z M 54.894531 47.441406 "/>
<path style=" stroke:none;fill-rule:nonzero;fill:rgb(24.705882%,23.921569%,33.725491%);fill-opacity:1;" d="M 123.882812 38.242188 L 120.34375 38.242188 L 120.34375 33.28125 L 123.882812 33.28125 Z M 120.617188 37.863281 L 123.609375 37.863281 L 123.609375 33.664062 L 120.617188 33.664062 Z M 120.617188 37.863281 "/>
<path style=" stroke:none;fill-rule:nonzero;fill:rgb(24.705882%,23.921569%,33.725491%);fill-opacity:1;" d="M 34.765625 88.921875 L 34.554688 88.636719 C 35.515625 87.109375 36.246094 85.320312 36.699219 83.378906 C 37.410156 80.378906 37.757812 75.640625 35.371094 70.105469 C 32.933594 64.441406 32.824219 59.839844 33.160156 56.976562 C 33.527344 53.863281 34.464844 52.117188 34.503906 52.046875 L 34.738281 52.296875 C 34.726562 52.3125 33.800781 54.046875 33.445312 57.070312 C 33.121094 59.859375 33.234375 64.347656 35.621094 69.894531 C 38.066406 75.570312 37.703125 80.441406 36.972656 83.527344 C 36.175781 86.871094 34.820312 88.839844 34.765625 88.921875 Z M 34.765625 88.921875 "/>
<path style=" stroke:none;fill-rule:nonzero;fill:rgb(24.705882%,23.921569%,33.725491%);fill-opacity:1;" d="M 71.65625 75.894531 L 71.445312 75.605469 C 72.410156 74.078125 73.136719 72.289062 73.589844 70.351562 C 74.300781 67.351562 74.648438 62.609375 72.265625 57.074219 C 69.824219 51.410156 69.714844 46.808594 70.054688 43.949219 C 70.421875 40.835938 71.355469 39.089844 71.394531 39.015625 L 71.628906 39.265625 C 71.621094 39.28125 70.691406 41.019531 70.339844 44.039062 C 70.011719 46.828125 70.128906 51.316406 72.515625 56.863281 C 74.957031 62.539062 74.597656 67.410156 73.863281 70.496094 C 73.066406 73.839844 71.714844 75.8125 71.65625 75.894531 Z M 71.65625 75.894531 "/>
<path style=" stroke:none;fill-rule:nonzero;fill:rgb(24.705882%,23.921569%,33.725491%);fill-opacity:1;" d="M 103.765625 70.910156 L 103.554688 70.625 C 104.519531 69.09375 105.246094 67.308594 105.699219 65.367188 C 106.410156 62.367188 106.757812 57.628906 104.375 52.09375 C 101.933594 46.429688 101.824219 41.828125 102.164062 38.964844 C 102.53125 35.851562 103.464844 34.105469 103.503906 34.035156 L 103.738281 34.28125 C 103.730469 34.300781 102.800781 36.035156 102.449219 39.058594 C 102.121094 41.847656 102.234375 46.335938 104.625 51.882812 C 107.066406 57.558594 106.707031 62.429688 105.972656 65.515625 C 105.175781 68.859375 103.824219 70.828125 103.765625 70.910156 Z M 103.765625 70.910156 "/>
<path style=" stroke:none;fill-rule:nonzero;fill:rgb(24.705882%,23.921569%,33.725491%);fill-opacity:1;" d="M 7.027344 31.109375 L 19.886719 31.109375 L 19.886719 31.519531 L 7.027344 31.519531 Z M 7.027344 31.109375 "/>
<path style=" stroke:none;fill-rule:nonzero;fill:rgb(24.705882%,23.921569%,33.725491%);fill-opacity:1;" d="M 7.027344 33.984375 L 19.886719 33.984375 L 19.886719 34.390625 L 7.027344 34.390625 Z M 7.027344 33.984375 "/>
<path style=" stroke:none;fill-rule:nonzero;fill:rgb(24.705882%,23.921569%,33.725491%);fill-opacity:1;" d="M 7.027344 36.855469 L 19.886719 36.855469 L 19.886719 37.265625 L 7.027344 37.265625 Z M 7.027344 36.855469 "/>
<path style=" stroke:none;fill-rule:nonzero;fill:rgb(24.705882%,23.921569%,33.725491%);fill-opacity:1;" d="M 79.035156 3.707031 L 91.894531 3.707031 L 91.894531 4.117188 L 79.035156 4.117188 Z M 79.035156 3.707031 "/>
<path style=" stroke:none;fill-rule:nonzero;fill:rgb(24.705882%,23.921569%,33.725491%);fill-opacity:1;" d="M 79.035156 6.582031 L 91.894531 6.582031 L 91.894531 6.992188 L 79.035156 6.992188 Z M 79.035156 6.582031 "/>
<path style=" stroke:none;fill-rule:nonzero;fill:rgb(24.705882%,23.921569%,33.725491%);fill-opacity:1;" d="M 79.035156 9.457031 L 91.894531 9.457031 L 91.894531 9.867188 L 79.035156 9.867188 Z M 79.035156 9.457031 "/>
<path style=" stroke:none;fill-rule:nonzero;fill:rgb(24.705882%,23.921569%,33.725491%);fill-opacity:1;" d="M 109.230469 67.324219 L 122.089844 67.324219 L 122.089844 67.734375 L 109.230469 67.734375 Z M 109.230469 67.324219 "/>
<path style=" stroke:none;fill-rule:nonzero;fill:rgb(24.705882%,23.921569%,33.725491%);fill-opacity:1;" d="M 109.230469 70.199219 L 122.089844 70.199219 L 122.089844 70.609375 L 109.230469 70.609375 Z M 109.230469 70.199219 "/>
<path style=" stroke:none;fill-rule:nonzero;fill:rgb(24.705882%,23.921569%,33.725491%);fill-opacity:1;" d="M 109.230469 73.074219 L 122.089844 73.074219 L 122.089844 73.480469 L 109.230469 73.480469 Z M 109.230469 73.074219 "/>
<path style=" stroke:none;fill-rule:nonzero;fill:rgb(24.705882%,23.921569%,33.725491%);fill-opacity:1;" d="M 28.480469 96.066406 L 41.339844 96.066406 L 41.339844 96.476562 L 28.480469 96.476562 Z M 28.480469 96.066406 "/>
<path style=" stroke:none;fill-rule:nonzero;fill:rgb(24.705882%,23.921569%,33.725491%);fill-opacity:1;" d="M 28.480469 98.941406 L 41.339844 98.941406 L 41.339844 99.351562 L 28.480469 99.351562 Z M 28.480469 98.941406 "/>
<path style=" stroke:none;fill-rule:nonzero;fill:rgb(24.705882%,23.921569%,33.725491%);fill-opacity:1;" d="M 28.480469 101.816406 L 41.339844 101.816406 L 41.339844 102.226562 L 28.480469 102.226562 Z M 28.480469 101.816406 "/>
<path style=" stroke:none;fill-rule:nonzero;fill:rgb(18.431373%,18.039216%,25.490198%);fill-opacity:1;" d="M 18.835938 21.195312 C 21.058594 14.207031 24.40625 9.609375 28.789062 7.53125 C 32.042969 5.988281 35.804688 5.84375 39.972656 7.097656 C 43.046875 8.03125 45.996094 9.636719 48.710938 11.859375 C 63.179688 23.632812 72.121094 23.738281 77.078125 21.753906 C 82.511719 19.574219 84.5 14.46875 84.519531 14.414062 L 84.761719 14.59375 C 84.742188 14.648438 82.707031 19.890625 77.164062 22.117188 C 73.96875 23.402344 70.234375 23.453125 66.066406 22.273438 C 60.875 20.808594 54.992188 17.414062 48.574219 12.191406 C 45.882812 9.988281 42.960938 8.398438 39.914062 7.472656 C 33.082031 5.414062 23.917969 6.152344 19.085938 21.351562 Z M 18.835938 21.195312 "/>
<path style=" stroke:none;fill-rule:nonzero;fill:rgb(24.705882%,23.921569%,33.725491%);fill-opacity:1;" d="M 39.898438 45.414062 C 39.898438 49.222656 37.695312 52.3125 34.980469 52.3125 C 32.261719 52.3125 30.058594 49.222656 30.058594 45.414062 C 30.058594 41.601562 32.261719 38.515625 34.980469 38.515625 C 37.695312 38.515625 39.898438 41.601562 39.898438 45.414062 Z M 39.898438 45.414062 "/>
<path style=" stroke:none;fill-rule:nonzero;fill:rgb(24.705882%,23.921569%,33.725491%);fill-opacity:1;" d="M 77.0625 33.339844 C 77.0625 37.152344 74.859375 40.238281 72.144531 40.238281 C 69.425781 40.238281 67.222656 37.152344 67.222656 33.339844 C 67.222656 29.53125 69.425781 26.441406 72.144531 26.441406 C 74.859375 26.441406 77.0625 29.53125 77.0625 33.339844 Z M 77.0625 33.339844 "/>
<path style=" stroke:none;fill-rule:nonzero;fill:rgb(24.705882%,23.921569%,33.725491%);fill-opacity:1;" d="M 109.171875 27.210938 C 109.171875 31.019531 106.96875 34.109375 104.253906 34.109375 C 101.535156 34.109375 99.332031 31.019531 99.332031 27.210938 C 99.332031 23.398438 101.535156 20.3125 104.253906 20.3125 C 106.96875 20.3125 109.171875 23.398438 109.171875 27.210938 Z M 109.171875 27.210938 "/>
<path style=" stroke:none;fill-rule:nonzero;fill:rgb(24.705882%,23.921569%,33.725491%);fill-opacity:1;" d="M 30.46875 42.730469 L 0 42.730469 L 0 20.886719 L 30.46875 20.886719 Z M 0.273438 42.347656 L 30.195312 42.347656 L 30.195312 21.269531 L 0.273438 21.269531 Z M 0.273438 42.347656 "/>
<path style=" stroke:none;fill-rule:nonzero;fill:rgb(94.901961%,94.901961%,94.901961%);fill-opacity:1;" d="M 38.53125 11.464844 L 65.175781 11.464844 L 65.175781 28.167969 L 38.53125 28.167969 Z M 38.53125 11.464844 "/>
<path style=" stroke:none;fill-rule:nonzero;fill:rgb(24.705882%,23.921569%,33.725491%);fill-opacity:1;" d="M 45.421875 16.738281 L 58.28125 16.738281 L 58.28125 17.148438 L 45.421875 17.148438 Z M 45.421875 16.738281 "/>
<path style=" stroke:none;fill-rule:nonzero;fill:rgb(24.705882%,23.921569%,33.725491%);fill-opacity:1;" d="M 45.421875 19.613281 L 58.28125 19.613281 L 58.28125 20.019531 L 45.421875 20.019531 Z M 45.421875 19.613281 "/>
<path style=" stroke:none;fill-rule:nonzero;fill:rgb(24.705882%,23.921569%,33.725491%);fill-opacity:1;" d="M 45.015625 21.910156 L 57.871094 21.910156 L 57.871094 22.320312 L 45.015625 22.320312 Z M 45.015625 21.910156 "/>
<path style=" stroke:none;fill-rule:nonzero;fill:rgb(24.705882%,23.921569%,33.725491%);fill-opacity:1;" d="M 68.863281 28.359375 L 38.394531 28.359375 L 38.394531 6.515625 L 68.863281 6.515625 Z M 38.667969 27.976562 L 68.589844 27.976562 L 68.589844 6.898438 L 38.667969 6.898438 Z M 38.667969 27.976562 "/>
<path style=" stroke:none;fill-rule:nonzero;fill:rgb(94.901961%,94.901961%,94.901961%);fill-opacity:1;" d="M 107.257812 4.949219 L 133.902344 4.949219 L 133.902344 21.652344 L 107.257812 21.652344 Z M 107.257812 4.949219 "/>
<path style=" stroke:none;fill-rule:nonzero;fill:rgb(24.705882%,23.921569%,33.725491%);fill-opacity:1;" d="M 114.152344 10.222656 L 127.011719 10.222656 L 127.011719 10.632812 L 114.152344 10.632812 Z M 114.152344 10.222656 "/>
<path style=" stroke:none;fill-rule:nonzero;fill:rgb(24.705882%,23.921569%,33.725491%);fill-opacity:1;" d="M 114.152344 13.097656 L 127.011719 13.097656 L 127.011719 13.507812 L 114.152344 13.507812 Z M 114.152344 13.097656 "/>
<path style=" stroke:none;fill-rule:nonzero;fill:rgb(24.705882%,23.921569%,33.725491%);fill-opacity:1;" d="M 114.152344 15.96875 L 127.011719 15.96875 L 127.011719 16.378906 L 114.152344 16.378906 Z M 114.152344 15.96875 "/>
<path style=" stroke:none;fill-rule:nonzero;fill:rgb(24.705882%,23.921569%,33.725491%);fill-opacity:1;" d="M 137.59375 21.84375 L 107.121094 21.84375 L 107.121094 0 L 137.59375 0 Z M 107.394531 21.460938 L 137.320312 21.460938 L 137.320312 0.382812 L 107.394531 0.382812 Z M 107.394531 21.460938 "/>
</g>
</svg>
