<?xml version="1.0" encoding="UTF-8"?>
<svg xmlns="http://www.w3.org/2000/svg" xmlns:xlink="http://www.w3.org/1999/xlink" width="160px" height="160px" viewBox="0 0 160 160" version="1.1">
<g id="surface1">
<path style=" stroke:none;fill-rule:nonzero;fill:rgb(80.000001%,80.000001%,80.000001%);fill-opacity:1;" d="M 28.363281 74.1875 L 48.945312 74.1875 L 48.945312 108.234375 L 28.363281 108.234375 Z M 28.363281 74.1875 "/>
<path style=" stroke:none;fill-rule:nonzero;fill:rgb(90.196079%,90.196079%,90.196079%);fill-opacity:1;" d="M 17.882812 159.445312 L 7.402344 159.445312 L 6.28125 146.160156 L 19.003906 146.160156 Z M 17.882812 159.445312 "/>
<path style=" stroke:none;fill-rule:nonzero;fill:rgb(90.196079%,90.196079%,90.196079%);fill-opacity:1;" d="M 38.925781 149.820312 L 38.570312 156.972656 C 38.539062 157.628906 38.699219 158.273438 39.011719 158.738281 C 39.324219 159.207031 39.757812 159.453125 40.199219 159.414062 L 42.683594 159.191406 C 42.914062 159.167969 43.128906 158.996094 43.269531 158.71875 C 43.40625 158.4375 43.453125 158.082031 43.398438 157.75 L 42.019531 149.59375 Z M 38.925781 149.820312 "/>
<path style=" stroke:none;fill-rule:nonzero;fill:rgb(90.196079%,90.196079%,90.196079%);fill-opacity:1;" d="M 59.695312 154.050781 C 62.617188 155.0625 64.707031 156.5 66.078125 158.445312 C 66.566406 159.132812 67.207031 159.539062 67.878906 159.585938 C 68.738281 159.652344 69.441406 159.511719 69.972656 159.164062 C 70.246094 158.984375 70.433594 158.59375 70.460938 158.152344 C 70.496094 157.699219 70.359375 157.257812 70.109375 157 L 63.175781 149.703125 L 60.234375 151.445312 L 59.546875 152.460938 C 59.394531 152.683594 59.324219 153 59.355469 153.3125 C 59.382812 153.625 59.511719 153.898438 59.695312 154.050781 Z M 59.695312 154.050781 "/>
<path style=" stroke:none;fill-rule:nonzero;fill:rgb(18.431373%,18.039216%,25.490198%);fill-opacity:1;" d="M 50.703125 37.285156 L 30.890625 37.015625 C 30.941406 32.746094 31.609375 28.554688 33.078125 24.804688 C 34.042969 22.339844 34.023438 19.660156 33.789062 17.398438 C 33.429688 13.914062 34.265625 10.347656 36.117188 8.128906 C 37.53125 6.429688 39.320312 5.554688 41.140625 5.671875 L 41.523438 5.695312 C 44.070312 5.851562 46.390625 7.914062 47.675781 11.167969 C 48.320312 12.875 48.578125 14.84375 48.417969 16.785156 C 48.292969 18.613281 48.59375 20.460938 49.296875 22.324219 C 50.507812 26.414062 50.769531 31.652344 50.703125 37.285156 Z M 50.703125 37.285156 "/>
<path style=" stroke:none;fill-rule:nonzero;fill:rgb(63.529414%,83.137256%,88.627452%);fill-opacity:1;" d="M 63.957031 150.082031 L 60.070312 151.582031 L 41.132812 90.5625 L 42.316406 150.082031 L 38.429688 150.082031 C 34.273438 122.082031 26.773438 89.761719 30.144531 79.558594 L 50.265625 77.808594 Z M 63.957031 150.082031 "/>
<path style=" stroke:none;fill-rule:nonzero;fill:rgb(100%,72.549021%,72.549021%);fill-opacity:1;" d="M 46.207031 19.289062 C 46.207031 23.570312 43.859375 27.042969 40.964844 27.042969 C 38.070312 27.042969 35.722656 23.570312 35.722656 19.289062 C 35.722656 15.007812 38.070312 11.539062 40.964844 11.539062 C 43.859375 11.539062 46.207031 15.007812 46.207031 19.289062 Z M 46.207031 19.289062 "/>
<path style=" stroke:none;fill-rule:nonzero;fill:rgb(100%,72.549021%,72.549021%);fill-opacity:1;" d="M 45.53125 33.542969 L 36.90625 32.792969 C 37.753906 29.925781 38.089844 27.164062 37.753906 24.542969 L 44.175781 24.542969 C 44.164062 26.554688 44.839844 30.035156 45.53125 33.542969 Z M 45.53125 33.542969 "/>
<path style=" stroke:none;fill-rule:nonzero;fill:rgb(63.529414%,83.137256%,88.627452%);fill-opacity:1;" d="M 50.941406 80.058594 L 32.003906 82.0625 L 33.949219 32.417969 L 37.246094 31.042969 L 40.964844 32.292969 L 44.683594 29.542969 L 47.050781 30.792969 Z M 50.941406 80.058594 "/>
<path style=" stroke:none;fill-rule:nonzero;fill:rgb(90.196079%,90.196079%,90.196079%);fill-opacity:1;" d="M 35.21875 115.820312 L 22.285156 111.445312 C 26.128906 92.582031 33.058594 49.425781 30.820312 34.042969 L 37.585938 29.542969 Z M 35.21875 115.820312 "/>
<path style=" stroke:none;fill-rule:nonzero;fill:rgb(90.196079%,90.196079%,90.196079%);fill-opacity:1;" d="M 28.960938 61.304688 L 24.058594 56.800781 L 28.242188 38.6875 C 28.707031 36.820312 29.601562 35.25 30.765625 34.25 L 32.175781 33.042969 L 31.328125 51.300781 Z M 28.960938 61.304688 "/>
<path style=" stroke:none;fill-rule:nonzero;fill:rgb(90.196079%,90.196079%,90.196079%);fill-opacity:1;" d="M 62.183594 111.695312 C 58.101562 115.1875 47.898438 117.136719 43.417969 114.695312 C 43.085938 97.652344 42.441406 49.441406 44.515625 29.042969 L 51.953125 33.542969 L 51.277344 47.050781 C 47.722656 58.601562 58.046875 98.839844 62.183594 111.695312 Z M 62.183594 111.695312 "/>
<path style=" stroke:none;fill-rule:nonzero;fill:rgb(90.196079%,90.196079%,90.196079%);fill-opacity:1;" d="M 61.589844 59.054688 L 57.027344 56.800781 L 50.941406 46.550781 L 51.953125 33.542969 L 62.097656 54.550781 Z M 61.589844 59.054688 "/>
<path style=" stroke:none;fill-rule:nonzero;fill:rgb(100%,72.549021%,72.549021%);fill-opacity:1;" d="M 47.285156 68.789062 C 47.441406 69.796875 48.121094 70.429688 48.800781 70.203125 L 52.675781 68.90625 L 52.117188 65.246094 L 48.242188 66.542969 C 47.558594 66.773438 47.128906 67.777344 47.285156 68.789062 Z M 47.285156 68.789062 "/>
<path style=" stroke:none;fill-rule:nonzero;fill:rgb(18.431373%,18.039216%,25.490198%);fill-opacity:1;" d="M 45.53125 17.289062 C 42.617188 15.519531 39.742188 15.390625 36.90625 17.039062 L 35.722656 10.789062 L 46.542969 10.789062 Z M 45.53125 17.289062 "/>
<path style=" stroke:none;fill-rule:nonzero;fill:rgb(90.196079%,90.196079%,90.196079%);fill-opacity:1;" d="M 50.769531 64.554688 L 52.96875 70.558594 C 56.664062 69.03125 59.871094 64.222656 62.945312 58.554688 L 62.097656 54.550781 L 56.855469 56.550781 Z M 50.769531 64.554688 "/>
<path style=" stroke:none;fill-rule:nonzero;fill:rgb(24.705882%,23.921569%,33.725491%);fill-opacity:1;" d="M 49.164062 52.175781 L 48.488281 52.175781 C 48.488281 38.027344 46.519531 28.167969 44.601562 28.167969 L 44.429688 27.167969 C 46.152344 27.167969 47.25 31.269531 47.867188 34.714844 C 48.703125 39.378906 49.164062 45.582031 49.164062 52.175781 Z M 49.164062 52.175781 "/>
<path style=" stroke:none;fill-rule:nonzero;fill:rgb(24.705882%,23.921569%,33.725491%);fill-opacity:1;" d="M 33.609375 48.675781 L 32.933594 48.675781 C 32.933594 35.71875 34.917969 27.667969 37.835938 27.667969 L 37.667969 28.667969 C 35.648438 28.667969 33.609375 34.855469 33.609375 48.675781 Z M 33.609375 48.675781 "/>
<path style=" stroke:none;fill-rule:nonzero;fill:rgb(24.705882%,23.921569%,33.725491%);fill-opacity:1;" d="M 50.515625 52.425781 C 50.515625 53.808594 49.761719 54.925781 48.828125 54.925781 C 47.894531 54.925781 47.136719 53.808594 47.136719 52.425781 C 47.136719 51.042969 47.894531 49.925781 48.828125 49.925781 C 49.761719 49.925781 50.515625 51.042969 50.515625 52.425781 Z M 50.515625 52.425781 "/>
<path style=" stroke:none;fill-rule:nonzero;fill:rgb(24.705882%,23.921569%,33.725491%);fill-opacity:1;" d="M 30.90625 54.675781 L 30.230469 54.675781 C 30.230469 51.089844 31.59375 48.175781 33.273438 48.175781 L 33.273438 49.175781 C 31.96875 49.175781 30.90625 51.644531 30.90625 54.675781 Z M 30.90625 54.675781 "/>
<path style=" stroke:none;fill-rule:nonzero;fill:rgb(24.705882%,23.921569%,33.725491%);fill-opacity:1;" d="M 36.316406 54.675781 L 35.640625 54.675781 C 35.640625 51.644531 34.578125 49.175781 33.273438 49.175781 L 33.273438 48.175781 C 34.949219 48.175781 36.316406 51.089844 36.316406 54.675781 Z M 36.316406 54.675781 "/>
<path style=" stroke:none;fill-rule:nonzero;fill:rgb(24.705882%,23.921569%,33.725491%);fill-opacity:1;" d="M 36.65625 54.925781 C 36.65625 55.480469 36.351562 55.925781 35.976562 55.925781 C 35.605469 55.925781 35.300781 55.480469 35.300781 54.925781 C 35.300781 54.375 35.605469 53.925781 35.976562 53.925781 C 36.351562 53.925781 36.65625 54.375 36.65625 54.925781 Z M 36.65625 54.925781 "/>
<path style=" stroke:none;fill-rule:nonzero;fill:rgb(24.705882%,23.921569%,33.725491%);fill-opacity:1;" d="M 31.246094 54.925781 C 31.246094 55.480469 30.941406 55.925781 30.566406 55.925781 C 30.195312 55.925781 29.890625 55.480469 29.890625 54.925781 C 29.890625 54.375 30.195312 53.925781 30.566406 53.925781 C 30.941406 53.925781 31.246094 54.375 31.246094 54.925781 Z M 31.246094 54.925781 "/>
<path style=" stroke:none;fill-rule:nonzero;fill:rgb(63.529414%,83.137256%,88.627452%);fill-opacity:1;" d="M 22.113281 45.726562 L 26.335938 46.84375 L 35.976562 67.125 L 30.855469 65.34375 Z M 22.113281 45.726562 "/>
<path style=" stroke:none;fill-rule:nonzero;fill:rgb(24.705882%,23.921569%,33.725491%);fill-opacity:1;" d="M 21.367188 45.480469 C 21.234375 45.484375 21.117188 45.589844 21.054688 45.761719 C 20.992188 45.933594 21 46.140625 21.070312 46.300781 L 30.085938 66.535156 C 30.136719 66.648438 30.214844 66.726562 30.304688 66.757812 L 34.496094 68.21875 C 34.644531 68.269531 34.792969 68.179688 34.875 68 C 34.960938 67.816406 34.957031 67.578125 34.875 67.398438 L 24.976562 46.582031 C 24.921875 46.464844 24.839844 46.386719 24.746094 46.363281 L 21.433594 45.488281 C 21.410156 45.484375 21.390625 45.480469 21.367188 45.480469 Z M 21.367188 45.480469 "/>
<path style=" stroke:none;fill-rule:nonzero;fill:rgb(100%,72.549021%,72.549021%);fill-opacity:1;" d="M 26.988281 59.945312 L 27.242188 63.679688 L 31.195312 63.097656 C 31.890625 62.996094 32.398438 62.078125 32.332031 61.046875 C 32.261719 60.015625 31.640625 59.261719 30.945312 59.363281 Z M 26.988281 59.945312 "/>
<path style=" stroke:none;fill-rule:nonzero;fill:rgb(90.196079%,90.196079%,90.196079%);fill-opacity:1;" d="M 23.550781 59.511719 C 23.5625 62.164062 25.019531 64.300781 26.808594 64.304688 L 27.460938 64.304688 L 27.933594 58.472656 L 24.015625 56.382812 Z M 23.550781 59.511719 "/>
<path style=" stroke:none;fill-rule:nonzero;fill:rgb(90.196079%,90.196079%,90.196079%);fill-opacity:1;" d="M 82.816406 0 L 159.917969 0 L 159.917969 60.070312 L 82.816406 60.070312 Z M 82.816406 0 "/>
<path style=" stroke:none;fill-rule:nonzero;fill:rgb(100%,100%,100%);fill-opacity:1;" d="M 85.0625 56.746094 L 157.671875 56.746094 L 157.671875 3.320312 L 85.0625 3.320312 Z M 85.0625 56.746094 "/>
<path style=" stroke:none;fill-rule:nonzero;fill:rgb(24.705882%,23.921569%,33.725491%);fill-opacity:1;" d="M 90.675781 11.074219 L 116.5 11.074219 L 116.5 49.273438 L 90.675781 49.273438 Z M 90.675781 11.074219 "/>
<path style=" stroke:none;fill-rule:nonzero;fill:rgb(63.529414%,83.137256%,88.627452%);fill-opacity:1;" d="M 111.074219 27.40625 C 111.074219 28.015625 110.738281 28.511719 110.328125 28.511719 C 109.914062 28.511719 109.578125 28.015625 109.578125 27.40625 C 109.578125 26.792969 109.914062 26.296875 110.328125 26.296875 C 110.738281 26.296875 111.074219 26.792969 111.074219 27.40625 Z M 111.074219 27.40625 "/>
<path style=" stroke:none;fill-rule:nonzero;fill:rgb(63.529414%,83.137256%,88.627452%);fill-opacity:1;" d="M 108.269531 23.53125 C 108.269531 24.140625 107.933594 24.636719 107.519531 24.636719 C 107.105469 24.636719 106.769531 24.140625 106.769531 23.53125 C 106.769531 22.917969 107.105469 22.421875 107.519531 22.421875 C 107.933594 22.421875 108.269531 22.917969 108.269531 23.53125 Z M 108.269531 23.53125 "/>
<path style=" stroke:none;fill-rule:nonzero;fill:rgb(63.529414%,83.137256%,88.627452%);fill-opacity:1;" d="M 107.144531 27.40625 C 106.871094 27.40625 106.601562 27.519531 106.363281 27.730469 C 106.160156 27.273438 105.914062 26.851562 105.640625 26.476562 C 105.644531 26.417969 105.648438 26.359375 105.648438 26.296875 C 105.648438 25.410156 105.289062 24.605469 104.738281 24.257812 C 104.183594 23.910156 103.546875 24.085938 103.113281 24.703125 C 102.710938 24.621094 102.304688 24.613281 101.902344 24.6875 C 101.902344 24.671875 101.90625 24.652344 101.90625 24.636719 C 101.90625 23.617188 101.433594 22.726562 100.765625 22.484375 C 100.09375 22.238281 99.398438 22.707031 99.078125 23.613281 C 98.761719 24.519531 98.902344 25.632812 99.425781 26.300781 C 99.171875 26.621094 98.945312 26.976562 98.746094 27.363281 C 98.238281 26.738281 97.511719 26.679688 96.960938 27.21875 C 96.410156 27.757812 96.164062 28.769531 96.355469 29.703125 C 96.546875 30.640625 97.128906 31.28125 97.789062 31.28125 L 97.792969 31.28125 C 97.789062 31.371094 97.789062 31.464844 97.789062 31.558594 C 97.789062 32.113281 97.832031 32.667969 97.921875 33.210938 C 96.695312 33.894531 95.953125 35.742188 96.132812 37.664062 C 96.3125 39.585938 97.367188 41.066406 98.671875 41.230469 C 99.980469 41.394531 101.1875 40.203125 101.585938 38.351562 C 102.628906 38.648438 103.707031 38.414062 104.644531 37.683594 C 104.90625 38.601562 105.554688 39.144531 106.222656 39.011719 C 106.890625 38.878906 107.414062 38.101562 107.507812 37.113281 C 107.597656 36.125 107.226562 35.167969 106.609375 34.777344 C 106.933594 33.867188 107.113281 32.863281 107.140625 31.832031 L 107.144531 31.832031 C 107.972656 31.832031 108.640625 30.84375 108.640625 29.621094 C 108.640625 28.394531 107.972656 27.40625 107.144531 27.40625 Z M 107.144531 27.40625 "/>
<path style=" stroke:none;fill-rule:nonzero;fill:rgb(90.196079%,90.196079%,90.196079%);fill-opacity:1;" d="M 99.285156 10.242188 L 106.769531 10.242188 L 106.769531 11.902344 L 99.285156 11.902344 Z M 99.285156 10.242188 "/>
<path style=" stroke:none;fill-rule:nonzero;fill:rgb(24.705882%,23.921569%,33.725491%);fill-opacity:1;" d="M 123.613281 11.074219 L 149.4375 11.074219 L 149.4375 49.273438 L 123.613281 49.273438 Z M 123.613281 11.074219 "/>
<path style=" stroke:none;fill-rule:nonzero;fill:rgb(63.529414%,83.137256%,88.627452%);fill-opacity:1;" d="M 141.765625 36.484375 C 141.765625 36.757812 141.613281 36.984375 141.429688 36.984375 C 141.242188 36.984375 141.089844 36.757812 141.089844 36.484375 C 141.089844 36.210938 141.242188 35.984375 141.429688 35.984375 C 141.613281 35.984375 141.765625 36.210938 141.765625 36.484375 Z M 141.765625 36.484375 "/>
<path style=" stroke:none;fill-rule:nonzero;fill:rgb(63.529414%,83.137256%,88.627452%);fill-opacity:1;" d="M 140.5 34.742188 C 140.5 35.015625 140.351562 35.238281 140.164062 35.238281 C 139.980469 35.238281 139.828125 35.015625 139.828125 34.742188 C 139.828125 34.464844 139.980469 34.242188 140.164062 34.242188 C 140.351562 34.242188 140.5 34.464844 140.5 34.742188 Z M 140.5 34.742188 "/>
<path style=" stroke:none;fill-rule:nonzero;fill:rgb(63.529414%,83.137256%,88.627452%);fill-opacity:1;" d="M 139.996094 36.484375 C 139.871094 36.484375 139.75 36.535156 139.644531 36.632812 C 139.550781 36.425781 139.445312 36.234375 139.320312 36.066406 C 139.320312 36.039062 139.324219 36.011719 139.324219 35.984375 C 139.324219 35.585938 139.160156 35.226562 138.914062 35.070312 C 138.664062 34.914062 138.375 34.992188 138.183594 35.269531 C 138 35.230469 137.820312 35.230469 137.636719 35.261719 C 137.636719 35.253906 137.640625 35.246094 137.640625 35.238281 C 137.640625 34.777344 137.425781 34.378906 137.125 34.269531 C 136.824219 34.160156 136.511719 34.371094 136.367188 34.777344 C 136.222656 35.1875 136.289062 35.6875 136.523438 35.988281 C 136.410156 36.132812 136.308594 36.292969 136.21875 36.464844 C 135.988281 36.183594 135.664062 36.160156 135.414062 36.402344 C 135.167969 36.644531 135.054688 37.097656 135.140625 37.519531 C 135.226562 37.941406 135.488281 38.226562 135.785156 38.226562 L 135.789062 38.226562 C 135.785156 38.269531 135.785156 38.3125 135.785156 38.351562 C 135.785156 38.605469 135.804688 38.851562 135.847656 39.097656 C 135.292969 39.40625 134.960938 40.234375 135.039062 41.101562 C 135.121094 41.964844 135.597656 42.632812 136.183594 42.707031 C 136.773438 42.78125 137.316406 42.242188 137.496094 41.410156 C 137.964844 41.542969 138.449219 41.4375 138.871094 41.109375 C 138.988281 41.523438 139.28125 41.765625 139.582031 41.707031 C 139.882812 41.648438 140.117188 41.296875 140.160156 40.851562 C 140.199219 40.40625 140.035156 39.976562 139.753906 39.800781 C 139.902344 39.394531 139.984375 38.941406 139.996094 38.476562 C 140.367188 38.476562 140.671875 38.03125 140.671875 37.480469 C 140.671875 36.929688 140.367188 36.484375 139.996094 36.484375 Z M 139.996094 36.484375 "/>
<path style=" stroke:none;fill-rule:nonzero;fill:rgb(63.529414%,83.137256%,88.627452%);fill-opacity:1;" d="M 144.40625 27.027344 C 144.40625 27.304688 144.257812 27.527344 144.070312 27.527344 C 143.886719 27.527344 143.734375 27.304688 143.734375 27.027344 C 143.734375 26.753906 143.886719 26.53125 144.070312 26.53125 C 144.257812 26.53125 144.40625 26.753906 144.40625 27.027344 Z M 144.40625 27.027344 "/>
<path style=" stroke:none;fill-rule:nonzero;fill:rgb(63.529414%,83.137256%,88.627452%);fill-opacity:1;" d="M 145.199219 24.757812 C 145.199219 25.03125 145.050781 25.253906 144.863281 25.253906 C 144.675781 25.253906 144.527344 25.03125 144.527344 24.757812 C 144.527344 24.480469 144.675781 24.257812 144.863281 24.257812 C 145.050781 24.257812 145.199219 24.480469 145.199219 24.757812 Z M 145.199219 24.757812 "/>
<path style=" stroke:none;fill-rule:nonzero;fill:rgb(63.529414%,83.137256%,88.627452%);fill-opacity:1;" d="M 143.683594 24.992188 C 143.648438 24.8125 143.582031 24.65625 143.492188 24.53125 C 143.601562 24.34375 143.695312 24.136719 143.769531 23.914062 C 143.789062 23.910156 143.808594 23.902344 143.824219 23.894531 C 144.085938 23.789062 144.277344 23.460938 144.308594 23.0625 C 144.34375 22.667969 144.214844 22.277344 143.980469 22.078125 C 143.957031 21.808594 143.910156 21.550781 143.839844 21.300781 C 143.84375 21.296875 143.847656 21.296875 143.855469 21.296875 C 144.152344 21.171875 144.355469 20.761719 144.34375 20.300781 C 144.335938 19.84375 144.113281 19.453125 143.808594 19.359375 C 143.503906 19.265625 143.195312 19.492188 143.0625 19.910156 C 142.941406 19.785156 142.808594 19.683594 142.671875 19.605469 C 142.792969 19.203125 142.71875 18.730469 142.496094 18.441406 C 142.269531 18.15625 141.945312 18.121094 141.691406 18.355469 C 141.441406 18.59375 141.324219 19.042969 141.40625 19.46875 L 141.40625 19.472656 C 141.378906 19.480469 141.351562 19.492188 141.324219 19.5 C 141.164062 19.570312 141.003906 19.667969 140.859375 19.789062 C 140.507812 19.085938 139.875 18.835938 139.335938 19.1875 C 138.796875 19.535156 138.488281 20.390625 138.601562 21.25 C 138.710938 22.105469 139.210938 22.734375 139.796875 22.765625 C 139.839844 23.46875 140.039062 24.128906 140.367188 24.640625 C 140.132812 24.921875 140.050781 25.402344 140.171875 25.816406 C 140.292969 26.226562 140.582031 26.46875 140.882812 26.40625 C 141.183594 26.34375 141.417969 25.992188 141.457031 25.546875 C 141.765625 25.640625 142.082031 25.636719 142.386719 25.527344 L 142.386719 25.53125 C 142.488281 26.0625 142.859375 26.371094 143.21875 26.21875 C 143.574219 26.070312 143.785156 25.519531 143.683594 24.992188 Z M 143.683594 24.992188 "/>
<path style=" stroke:none;fill-rule:nonzero;fill:rgb(63.529414%,83.137256%,88.627452%);fill-opacity:1;" d="M 131.359375 20.257812 C 131.359375 20.53125 131.210938 20.757812 131.023438 20.757812 C 130.839844 20.757812 130.6875 20.53125 130.6875 20.257812 C 130.6875 19.984375 130.839844 19.757812 131.023438 19.757812 C 131.210938 19.757812 131.359375 19.984375 131.359375 20.257812 Z M 131.359375 20.257812 "/>
<path style=" stroke:none;fill-rule:nonzero;fill:rgb(63.529414%,83.137256%,88.627452%);fill-opacity:1;" d="M 129.640625 20.460938 C 129.640625 20.738281 129.488281 20.960938 129.300781 20.960938 C 129.117188 20.960938 128.964844 20.738281 128.964844 20.460938 C 128.964844 20.1875 129.117188 19.964844 129.300781 19.964844 C 129.488281 19.964844 129.640625 20.1875 129.640625 20.460938 Z M 129.640625 20.460938 "/>
<path style=" stroke:none;fill-rule:nonzero;fill:rgb(63.529414%,83.137256%,88.627452%);fill-opacity:1;" d="M 130.058594 21.820312 C 129.976562 21.957031 129.917969 22.125 129.894531 22.304688 C 129.730469 22.265625 129.5625 22.257812 129.394531 22.277344 C 129.382812 22.257812 129.371094 22.238281 129.355469 22.222656 C 129.15625 21.953125 128.867188 21.886719 128.621094 22.050781 C 128.375 22.21875 128.222656 22.585938 128.230469 22.984375 C 128.089844 23.15625 127.964844 23.355469 127.859375 23.574219 C 127.855469 23.570312 127.851562 23.5625 127.847656 23.558594 C 127.617188 23.246094 127.277344 23.210938 127.015625 23.464844 C 126.757812 23.722656 126.652344 24.207031 126.761719 24.636719 C 126.867188 25.066406 127.160156 25.335938 127.46875 25.28125 C 127.464844 25.503906 127.476562 25.722656 127.5 25.9375 C 127.207031 26 126.972656 26.335938 126.929688 26.769531 C 126.882812 27.207031 127.035156 27.632812 127.300781 27.824219 C 127.570312 28.015625 127.890625 27.921875 128.089844 27.597656 L 128.09375 27.59375 C 128.113281 27.625 128.132812 27.652344 128.152344 27.679688 C 128.277344 27.851562 128.417969 27.996094 128.566406 28.117188 C 128.347656 28.925781 128.535156 29.851562 129.023438 30.347656 C 129.507812 30.84375 130.160156 30.773438 130.59375 30.179688 C 131.027344 29.589844 131.125 28.632812 130.832031 27.875 C 131.214844 27.453125 131.488281 26.851562 131.609375 26.167969 C 131.894531 26.320312 132.214844 26.164062 132.386719 25.796875 C 132.558594 25.429688 132.542969 24.933594 132.347656 24.589844 C 132.15625 24.246094 131.828125 24.136719 131.550781 24.324219 C 131.445312 23.886719 131.277344 23.492188 131.054688 23.167969 L 131.054688 23.164062 C 131.21875 22.902344 131.273438 22.53125 131.199219 22.191406 C 131.125 21.851562 130.9375 21.59375 130.703125 21.519531 C 130.464844 21.441406 130.222656 21.558594 130.058594 21.820312 Z M 130.058594 21.820312 "/>
<path style=" stroke:none;fill-rule:nonzero;fill:rgb(90.196079%,90.196079%,90.196079%);fill-opacity:1;" d="M 132.222656 10.242188 L 139.707031 10.242188 L 139.707031 11.902344 L 132.222656 11.902344 Z M 132.222656 10.242188 "/>
<path style=" stroke:none;fill-rule:nonzero;fill:rgb(90.196079%,90.196079%,90.196079%);fill-opacity:1;" d="M 4.710938 141.242188 C 7.410156 146.589844 13.011719 147.152344 13.011719 147.152344 C 13.011719 147.152344 14.238281 139.046875 11.539062 133.703125 C 8.839844 128.355469 3.238281 127.792969 3.238281 127.792969 C 3.238281 127.792969 2.011719 135.898438 4.710938 141.242188 Z M 4.710938 141.242188 "/>
<path style=" stroke:none;fill-rule:nonzero;fill:rgb(90.196079%,90.196079%,90.196079%);fill-opacity:1;" d="M 18.457031 143.253906 C 16.675781 146.78125 12.980469 147.152344 12.980469 147.152344 C 12.980469 147.152344 12.171875 141.804688 13.953125 138.277344 C 15.734375 134.75 19.429688 134.378906 19.429688 134.378906 C 19.429688 134.378906 20.238281 139.726562 18.457031 143.253906 Z M 18.457031 143.253906 "/>
<path style=" stroke:none;fill-rule:nonzero;fill:rgb(24.705882%,23.921569%,33.725491%);fill-opacity:1;" d="M 0 159.351562 L 97.226562 159.351562 L 97.226562 159.972656 L 0 159.972656 Z M 0 159.351562 "/>
</g>
</svg>
