<?xml version="1.0" encoding="UTF-8"?>
<svg xmlns="http://www.w3.org/2000/svg" xmlns:xlink="http://www.w3.org/1999/xlink" width="160px" height="160px" viewBox="0 0 160 160" version="1.1">
<g id="surface1">
<path style=" stroke:none;fill-rule:nonzero;fill:rgb(24.705882%,23.921569%,33.725491%);fill-opacity:1;" d="M 121.089844 153.964844 L 160.003906 153.964844 L 160.003906 154.5625 L 121.089844 154.5625 Z M 121.089844 153.964844 "/>
<path style=" stroke:none;fill-rule:nonzero;fill:rgb(62.7451%,38.039216%,41.568628%);fill-opacity:1;" d="M 144.695312 66.738281 L 144.695312 70.851562 L 146.515625 75.382812 L 147.820312 67.148438 Z M 144.695312 66.738281 "/>
<path style=" stroke:none;fill-rule:nonzero;fill:rgb(90.196079%,90.196079%,90.196079%);fill-opacity:1;" d="M 144.433594 30.101562 L 145.855469 29.460938 C 145.855469 29.460938 148.078125 30.101562 148.078125 34.21875 C 148.078125 38.335938 148.601562 54.800781 148.601562 54.800781 L 148.078125 64.265625 C 148.078125 64.265625 148.859375 64.679688 148.601562 65.914062 C 148.339844 67.148438 147.820312 70.03125 147.558594 69.617188 C 147.296875 69.207031 147.296875 68.382812 147.296875 68.382812 C 147.296875 68.382812 143.128906 69.617188 143.390625 68.382812 C 143.652344 67.148438 143.652344 64.265625 143.910156 64.265625 C 144.171875 64.265625 143.652344 51.917969 143.652344 51.917969 Z M 144.433594 30.101562 "/>
<path style=" stroke:none;fill-rule:nonzero;fill:rgb(62.7451%,38.039216%,41.568628%);fill-opacity:1;" d="M 120.859375 65.296875 L 124.246094 71.882812 L 128.414062 79.703125 L 129.714844 70.234375 L 127.386719 69.660156 L 125.027344 64.0625 Z M 120.859375 65.296875 "/>
<path style=" stroke:none;fill-rule:nonzero;fill:rgb(18.431373%,18.039216%,25.490198%);fill-opacity:1;" d="M 129.324219 63.03125 C 129.324219 63.03125 125.417969 66.324219 128.023438 88.554688 L 128.804688 110.78125 L 129.324219 147.414062 L 134.535156 147.414062 L 135.578125 111.191406 L 138.703125 88.140625 L 143.652344 108.722656 L 141.828125 145.355469 L 148.859375 147.003906 L 151.207031 105.839844 L 147.039062 75.382812 L 143.910156 66.738281 L 143.261719 64.472656 Z M 129.324219 63.03125 "/>
<path style=" stroke:none;fill-rule:nonzero;fill:rgb(18.431373%,18.039216%,25.490198%);fill-opacity:1;" d="M 130.105469 146.179688 L 129.324219 149.882812 C 129.324219 149.882812 128.28125 156.46875 131.929688 155.648438 C 135.578125 154.824219 134.273438 151.117188 134.273438 151.117188 L 134.015625 146.179688 Z M 130.105469 146.179688 "/>
<path style=" stroke:none;fill-rule:nonzero;fill:rgb(18.431373%,18.039216%,25.490198%);fill-opacity:1;" d="M 142.089844 144.945312 C 142.089844 144.945312 141.308594 149.0625 141.308594 151.117188 C 141.308594 153.175781 141.828125 154.074219 141.828125 154.074219 C 141.828125 154.074219 156.675781 155.648438 156.414062 153.589844 C 156.15625 151.53125 154.589844 150.707031 154.589844 150.707031 L 150.945312 149.472656 L 148.339844 146.179688 L 143.128906 144.121094 Z M 142.089844 144.945312 "/>
<path style=" stroke:none;fill-rule:nonzero;fill:rgb(62.7451%,38.039216%,41.568628%);fill-opacity:1;" d="M 141.046875 11.992188 C 141.046875 16.3125 138.832031 19.8125 136.097656 19.8125 C 133.363281 19.8125 131.148438 16.3125 131.148438 11.992188 C 131.148438 7.671875 133.363281 4.171875 136.097656 4.171875 C 138.832031 4.171875 141.046875 7.671875 141.046875 11.992188 Z M 141.046875 11.992188 "/>
<path style=" stroke:none;fill-rule:nonzero;fill:rgb(62.7451%,38.039216%,41.568628%);fill-opacity:1;" d="M 139.746094 15.285156 L 140.527344 26.808594 L 138.703125 32.160156 L 134.273438 24.339844 L 133.753906 17.753906 Z M 139.746094 15.285156 "/>
<path style=" stroke:none;fill-rule:nonzero;fill:rgb(90.196079%,90.196079%,90.196079%);fill-opacity:1;" d="M 138.179688 27.222656 L 134.097656 22.089844 L 133.230469 23.929688 L 126.71875 28.046875 L 126.980469 46.15625 C 126.980469 46.15625 127.242188 61.386719 128.804688 63.03125 L 128.152344 64.472656 L 143.652344 65.503906 L 143.652344 54.386719 L 147.039062 30.515625 L 141.046875 25.164062 L 140.300781 23.496094 Z M 138.179688 27.222656 "/>
<path style=" stroke:none;fill-rule:nonzero;fill:rgb(90.196079%,90.196079%,90.196079%);fill-opacity:1;" d="M 127.761719 28.867188 L 127.382812 27.625 L 126.460938 28.046875 C 126.460938 28.046875 124.636719 29.28125 123.335938 34.632812 C 122.03125 39.980469 118.386719 51.917969 118.386719 51.917969 C 118.386719 51.917969 117.34375 53.976562 118.125 56.035156 C 118.90625 58.09375 119.6875 62.621094 119.6875 62.621094 C 119.6875 62.621094 118.90625 62.210938 119.425781 63.855469 C 119.949219 65.503906 119.949219 67.148438 121.511719 66.738281 C 123.074219 66.324219 126.199219 65.089844 125.9375 63.855469 C 125.679688 62.621094 125.417969 60.5625 124.898438 60.5625 C 124.375 60.5625 123.59375 54.386719 123.59375 54.386719 L 124.117188 51.09375 L 128.023438 43.6875 Z M 127.761719 28.867188 "/>
<path style=" stroke:none;fill-rule:nonzero;fill:rgb(18.431373%,18.039216%,25.490198%);fill-opacity:1;" d="M 136.617188 6.230469 C 136.617188 6.230469 135.835938 6.230469 135.835938 5.816406 C 135.835938 5.816406 133.113281 5.6875 132 7.605469 C 130.886719 9.523438 131.148438 6.640625 131.148438 6.640625 C 131.148438 6.640625 128.28125 4.582031 130.628906 2.523438 L 130.886719 2.9375 C 130.886719 2.9375 131.410156 1.703125 133.230469 1.289062 L 132.972656 0.878906 C 132.972656 0.878906 132.972656 0.464844 134.273438 0.464844 C 135.578125 0.464844 138.960938 -1.589844 139.222656 2.9375 C 139.222656 2.9375 141.308594 1.703125 141.308594 5.816406 C 141.308594 9.933594 141.046875 11.992188 141.046875 11.992188 C 141.046875 11.992188 140.527344 9.933594 139.484375 11.167969 C 138.441406 12.402344 136.617188 6.230469 136.617188 6.230469 Z M 136.617188 6.230469 "/>
<path style=" stroke:none;fill-rule:nonzero;fill:rgb(90.196079%,90.196079%,90.196079%);fill-opacity:1;" d="M 40.238281 138.074219 C 40.238281 139.886719 31.230469 141.359375 20.117188 141.359375 C 9.007812 141.359375 0 139.886719 0 138.074219 C 0 136.257812 9.007812 134.789062 20.117188 134.789062 C 31.230469 134.789062 40.238281 136.257812 40.238281 138.074219 Z M 40.238281 138.074219 "/>
<path style=" stroke:none;fill-rule:nonzero;fill:rgb(90.196079%,90.196079%,90.196079%);fill-opacity:1;" d="M 7.914062 90.191406 L 32.324219 90.191406 L 32.324219 138.089844 L 7.914062 138.089844 Z M 7.914062 90.191406 "/>
<path style=" stroke:none;fill-rule:nonzero;fill:rgb(100%,100%,100%);fill-opacity:1;" d="M 11.441406 106.917969 L 28.875 106.917969 L 28.875 108.1875 L 11.441406 108.1875 Z M 11.441406 106.917969 "/>
<path style=" stroke:none;fill-rule:nonzero;fill:rgb(100%,100%,100%);fill-opacity:1;" d="M 11.441406 111.367188 L 28.875 111.367188 L 28.875 112.640625 L 11.441406 112.640625 Z M 11.441406 111.367188 "/>
<path style=" stroke:none;fill-rule:nonzero;fill:rgb(100%,100%,100%);fill-opacity:1;" d="M 11.441406 115.820312 L 28.875 115.820312 L 28.875 117.089844 L 11.441406 117.089844 Z M 11.441406 115.820312 "/>
<path style=" stroke:none;fill-rule:nonzero;fill:rgb(100%,100%,100%);fill-opacity:1;" d="M 11.441406 120.269531 L 28.875 120.269531 L 28.875 121.542969 L 11.441406 121.542969 Z M 11.441406 120.269531 "/>
<path style=" stroke:none;fill-rule:nonzero;fill:rgb(90.196079%,90.196079%,90.196079%);fill-opacity:1;" d="M 24.90625 70.289062 C 24.90625 74.046875 23.152344 77.230469 20.800781 77.757812 C 18.445312 78.28125 16.203125 75.992188 15.542969 72.378906 C 14.882812 68.769531 16.003906 64.941406 18.171875 63.402344 C 20.339844 61.859375 22.894531 63.070312 24.167969 66.246094 C 24.652344 67.457031 24.90625 68.859375 24.90625 70.289062 Z M 24.90625 70.289062 "/>
<path style=" stroke:none;fill-rule:nonzero;fill:rgb(100%,100%,100%);fill-opacity:1;" d="M 24.167969 66.246094 L 19.453125 73.695312 C 19.15625 72.972656 17.503906 69.601562 17.503906 69.601562 C 17.71875 69.265625 17.941406 68.949219 18.179688 68.660156 L 19.550781 71.542969 L 23.617188 65.121094 C 23.820312 65.46875 24.007812 65.84375 24.167969 66.246094 Z M 24.167969 66.246094 "/>
<path style=" stroke:none;fill-rule:nonzero;fill:rgb(90.196079%,90.196079%,90.196079%);fill-opacity:1;" d="M 105.335938 136.144531 C 105.335938 137.960938 96.328125 139.429688 85.21875 139.429688 C 74.105469 139.429688 65.097656 137.960938 65.097656 136.144531 C 65.097656 134.332031 74.105469 132.859375 85.21875 132.859375 C 96.328125 132.859375 105.335938 134.332031 105.335938 136.144531 Z M 105.335938 136.144531 "/>
<path style=" stroke:none;fill-rule:nonzero;fill:rgb(90.196079%,90.196079%,90.196079%);fill-opacity:1;" d="M 73.011719 88.261719 L 97.421875 88.261719 L 97.421875 136.160156 L 73.011719 136.160156 Z M 73.011719 88.261719 "/>
<path style=" stroke:none;fill-rule:nonzero;fill:rgb(100%,100%,100%);fill-opacity:1;" d="M 76.539062 114.925781 L 93.972656 114.925781 L 93.972656 116.199219 L 76.539062 116.199219 Z M 76.539062 114.925781 "/>
<path style=" stroke:none;fill-rule:nonzero;fill:rgb(100%,100%,100%);fill-opacity:1;" d="M 76.539062 119.375 L 93.972656 119.375 L 93.972656 120.648438 L 76.539062 120.648438 Z M 76.539062 119.375 "/>
<path style=" stroke:none;fill-rule:nonzero;fill:rgb(100%,100%,100%);fill-opacity:1;" d="M 76.539062 123.828125 L 93.972656 123.828125 L 93.972656 125.097656 L 76.539062 125.097656 Z M 76.539062 123.828125 "/>
<path style=" stroke:none;fill-rule:nonzero;fill:rgb(100%,100%,100%);fill-opacity:1;" d="M 76.539062 128.277344 L 93.972656 128.277344 L 93.972656 129.550781 L 76.539062 129.550781 Z M 76.539062 128.277344 "/>
<path style=" stroke:none;fill-rule:nonzero;fill:rgb(100%,100%,100%);fill-opacity:1;" d="M 81.878906 105.3125 L 76.339844 105.3125 C 75.960938 101.859375 75.960938 98.328125 76.339844 94.875 L 81.878906 94.875 C 81.257812 98.28125 81.257812 101.902344 81.878906 105.3125 Z M 81.878906 105.3125 "/>
<path style=" stroke:none;fill-rule:nonzero;fill:rgb(100%,100%,100%);fill-opacity:1;" d="M 84.183594 95.851562 L 94.375 95.851562 L 94.375 96.910156 L 84.183594 96.910156 Z M 84.183594 95.851562 "/>
<path style=" stroke:none;fill-rule:nonzero;fill:rgb(100%,100%,100%);fill-opacity:1;" d="M 84.183594 99.667969 L 94.375 99.667969 L 94.375 100.726562 L 84.183594 100.726562 Z M 84.183594 99.667969 "/>
<path style=" stroke:none;fill-rule:nonzero;fill:rgb(100%,100%,100%);fill-opacity:1;" d="M 84.183594 103.480469 L 94.375 103.480469 L 94.375 104.539062 L 84.183594 104.539062 Z M 84.183594 103.480469 "/>
<path style=" stroke:none;fill-rule:nonzero;fill:rgb(100%,100%,100%);fill-opacity:1;" d="M 84.183594 107.296875 L 94.375 107.296875 L 94.375 108.355469 L 84.183594 108.355469 Z M 84.183594 107.296875 "/>
<path style=" stroke:none;fill-rule:nonzero;fill:rgb(90.196079%,90.196079%,90.196079%);fill-opacity:1;" d="M 90.007812 68.613281 C 90.003906 72.371094 88.253906 75.550781 85.898438 76.078125 C 83.542969 76.601562 81.304688 74.3125 80.640625 70.703125 C 79.980469 67.09375 81.101562 63.265625 83.269531 61.722656 C 85.4375 60.179688 87.996094 61.394531 89.265625 64.570312 C 89.75 65.777344 90.007812 67.179688 90.007812 68.613281 Z M 90.007812 68.613281 "/>
<path style=" stroke:none;fill-rule:nonzero;fill:rgb(100%,100%,100%);fill-opacity:1;" d="M 89.265625 64.570312 L 84.550781 72.015625 C 84.253906 71.292969 82.605469 67.921875 82.605469 67.921875 C 82.816406 67.585938 83.042969 67.269531 83.28125 66.980469 L 84.648438 69.863281 L 88.714844 63.441406 C 88.921875 63.789062 89.105469 64.167969 89.265625 64.570312 Z M 89.265625 64.570312 "/>
<path style=" stroke:none;fill-rule:nonzero;fill:rgb(24.705882%,23.921569%,33.725491%);fill-opacity:1;" d="M 76.617188 156.023438 C 76.617188 158.148438 66.0625 159.875 53.039062 159.875 C 40.019531 159.875 29.460938 158.148438 29.460938 156.023438 C 29.460938 153.898438 40.019531 152.171875 53.039062 152.171875 C 66.0625 152.171875 76.617188 153.898438 76.617188 156.023438 Z M 76.617188 156.023438 "/>
<path style=" stroke:none;fill-rule:nonzero;fill:rgb(63.529414%,83.137256%,88.627452%);fill-opacity:1;" d="M 38.578125 100.757812 L 67.1875 100.757812 L 67.1875 156.890625 L 38.578125 156.890625 Z M 38.578125 100.757812 "/>
<path style=" stroke:none;fill-rule:nonzero;fill:rgb(100%,100%,100%);fill-opacity:1;" d="M 42.664062 112.679688 L 63.101562 112.679688 L 63.101562 114.167969 L 42.664062 114.167969 Z M 42.664062 112.679688 "/>
<path style=" stroke:none;fill-rule:nonzero;fill:rgb(100%,100%,100%);fill-opacity:1;" d="M 42.664062 117.894531 L 63.101562 117.894531 L 63.101562 119.386719 L 42.664062 119.386719 Z M 42.664062 117.894531 "/>
<path style=" stroke:none;fill-rule:nonzero;fill:rgb(100%,100%,100%);fill-opacity:1;" d="M 42.664062 123.113281 L 63.101562 123.113281 L 63.101562 124.601562 L 42.664062 124.601562 Z M 42.664062 123.113281 "/>
<path style=" stroke:none;fill-rule:nonzero;fill:rgb(100%,100%,100%);fill-opacity:1;" d="M 42.664062 128.328125 L 63.101562 128.328125 L 63.101562 129.816406 L 42.664062 129.816406 Z M 42.664062 128.328125 "/>
<path style=" stroke:none;fill-rule:nonzero;fill:rgb(100%,100%,100%);fill-opacity:1;" d="M 42.664062 133.542969 L 63.101562 133.542969 L 63.101562 135.035156 L 42.664062 135.035156 Z M 42.664062 133.542969 "/>
<path style=" stroke:none;fill-rule:nonzero;fill:rgb(100%,100%,100%);fill-opacity:1;" d="M 47.539062 139.007812 L 58.226562 139.007812 L 58.226562 144.96875 L 47.539062 144.96875 Z M 47.539062 139.007812 "/>
<path style=" stroke:none;fill-rule:nonzero;fill:rgb(63.529414%,83.137256%,88.627452%);fill-opacity:1;" d="M 60.164062 76.632812 C 60.160156 82.28125 57.527344 87.0625 53.992188 87.851562 C 50.453125 88.644531 47.085938 85.199219 46.09375 79.777344 C 45.097656 74.351562 46.78125 68.597656 50.039062 66.28125 C 53.300781 63.964844 57.140625 65.789062 59.050781 70.558594 C 59.777344 72.378906 60.164062 74.484375 60.164062 76.632812 Z M 60.164062 76.632812 "/>
<path style=" stroke:none;fill-rule:nonzero;fill:rgb(100%,100%,100%);fill-opacity:1;" d="M 59.050781 70.558594 L 51.964844 81.753906 C 51.519531 80.664062 49.039062 75.601562 49.039062 75.601562 C 49.359375 75.09375 49.699219 74.621094 50.054688 74.183594 L 52.113281 78.519531 L 58.222656 68.867188 C 58.53125 69.386719 58.808594 69.953125 59.050781 70.558594 Z M 59.050781 70.558594 "/>
</g>
</svg>
